<svg width="80" height="80" viewBox="0 0 80 80" fill="none" xmlns="http://www.w3.org/2000/svg">
<g clip-path="url(#clip0_4319_195870)">
<path d="M66.9687 73.8111L6.28213 67.0852C3.36432 66.7619 1.26126 64.1344 1.58456 61.2166L7.16244 10.8886C7.48589 7.9708 10.1133 5.86758 13.031 6.19103L73.7176 12.917C76.6354 13.2404 78.7386 15.8679 78.4152 18.7855L72.8373 69.1135C72.514 72.0313 69.8865 74.1346 66.9687 73.8111Z" fill="url(#paint0_linear_4319_195870)"/>
<path d="M78.4155 18.7857L76.2163 38.6341L71.3281 12.6523L73.7189 12.9171C76.6357 13.24 78.7385 15.8671 78.4155 18.7857Z" fill="url(#paint1_linear_4319_195870)"/>
<path d="M75.6664 64.4618L15.6607 75.7503C12.7757 76.293 9.99691 74.3942 9.45416 71.5092L0.0925913 21.7459C-0.450154 18.8608 1.44867 16.082 4.33369 15.5393L64.3393 4.25079C67.2244 3.70805 70.0032 5.60687 70.5459 8.49189L79.9075 58.2552C80.4502 61.1404 78.5514 63.9192 75.6664 64.4618Z" fill="url(#paint2_linear_4319_195870)"/>
<path d="M71.8271 15.3027V65.1849L75.6665 64.4626C78.5515 63.9198 80.4504 61.141 79.9076 58.256L71.8271 15.3027Z" fill="url(#paint3_linear_4319_195870)"/>
<path d="M9.16895 69.9902L9.45459 71.5087C9.99734 74.3937 12.7762 76.2925 15.6612 75.7498L46.2769 69.9902H9.16895Z" fill="url(#paint4_linear_4319_195870)"/>
<path d="M66.5112 70.3003H5.45315C2.51746 70.3003 0.137695 67.9206 0.137695 64.9849V14.3487C0.137695 11.413 2.51746 9.0332 5.45315 9.0332H66.5112C69.4469 9.0332 71.8266 11.413 71.8266 14.3487V64.9849C71.8266 67.9206 69.4469 70.3003 66.5112 70.3003Z" fill="url(#paint5_linear_4319_195870)"/>
<path d="M61.5333 65.3053H10.4302C7.97329 65.3053 5.98145 63.3135 5.98145 60.8565V18.4761C5.98145 16.0192 7.97329 14.0273 10.4302 14.0273H61.5333C63.9902 14.0273 65.9821 16.0192 65.9821 18.4761V60.8565C65.9821 63.3135 63.9902 65.3053 61.5333 65.3053Z" fill="url(#paint6_linear_4319_195870)"/>
<path d="M39.5402 65.3057H10.4316C7.97423 65.3057 5.98145 63.3145 5.98145 60.8573V53.9098L13.3669 44.9329C15.8042 41.9677 20.341 41.9677 22.78 44.9329L27.3785 50.5235L39.5402 65.3057Z" fill="url(#paint7_linear_4319_195870)"/>
<path d="M65.9835 49.6858V60.8571C65.9835 63.3145 63.9908 65.3056 61.5333 65.3056H15.2168L27.3787 50.5233L42.3192 32.3613C44.7566 29.3978 49.2951 29.3978 51.7324 32.3613L65.9835 49.6858Z" fill="url(#paint8_linear_4319_195870)"/>
<path d="M21.5257 31.0806C25.0099 31.0806 27.8345 28.256 27.8345 24.7718C27.8345 21.2875 25.0099 18.4629 21.5257 18.4629C18.0414 18.4629 15.2168 21.2875 15.2168 24.7718C15.2168 28.256 18.0414 31.0806 21.5257 31.0806Z" fill="url(#paint9_linear_4319_195870)"/>
</g>
<defs>
<linearGradient id="paint0_linear_4319_195870" x1="20.4412" y1="15.5575" x2="65.5589" y2="71.9035" gradientUnits="userSpaceOnUse">
<stop stop-color="#FFA936"/>
<stop offset="0.4112" stop-color="#FF8548"/>
<stop offset="0.7781" stop-color="#FF6C54"/>
<stop offset="1" stop-color="#FF6359"/>
</linearGradient>
<linearGradient id="paint1_linear_4319_195870" x1="76.9394" y1="24.9446" x2="73.1658" y2="25.7771" gradientUnits="userSpaceOnUse">
<stop stop-color="#F82814" stop-opacity="0"/>
<stop offset="1" stop-color="#C0272D"/>
</linearGradient>
<linearGradient id="paint2_linear_4319_195870" x1="14.1545" y1="22.3414" x2="73.767" y2="63.0699" gradientUnits="userSpaceOnUse">
<stop stop-color="#CDEC7A"/>
<stop offset="0.2157" stop-color="#B0E995"/>
<stop offset="0.5613" stop-color="#87E4BB"/>
<stop offset="0.8347" stop-color="#6EE1D2"/>
<stop offset="1" stop-color="#65E0DB"/>
</linearGradient>
<linearGradient id="paint3_linear_4319_195870" x1="77.1269" y1="40.2439" x2="70.6885" y2="40.2439" gradientUnits="userSpaceOnUse">
<stop stop-color="#CDEC7A" stop-opacity="0"/>
<stop offset="0.2354" stop-color="#9AD57D" stop-opacity="0.235"/>
<stop offset="0.6035" stop-color="#51B482" stop-opacity="0.604"/>
<stop offset="0.8679" stop-color="#239F85" stop-opacity="0.868"/>
<stop offset="1" stop-color="#119786"/>
</linearGradient>
<linearGradient id="paint4_linear_4319_195870" x1="27.7228" y1="73.242" x2="27.7228" y2="69.4277" gradientUnits="userSpaceOnUse">
<stop stop-color="#CDEC7A" stop-opacity="0"/>
<stop offset="0.2354" stop-color="#9AD57D" stop-opacity="0.235"/>
<stop offset="0.6035" stop-color="#51B482" stop-opacity="0.604"/>
<stop offset="0.8679" stop-color="#239F85" stop-opacity="0.868"/>
<stop offset="1" stop-color="#119786"/>
</linearGradient>
<linearGradient id="paint5_linear_4319_195870" x1="13.8451" y1="17.5297" x2="64.8833" y2="68.5678" gradientUnits="userSpaceOnUse">
<stop stop-color="#F8F6FB"/>
<stop offset="1" stop-color="#EFDCFB"/>
</linearGradient>
<linearGradient id="paint6_linear_4319_195870" x1="17.6884" y1="15.8667" x2="67.4679" y2="80.63" gradientUnits="userSpaceOnUse">
<stop stop-color="#18CEFB"/>
<stop offset="0.2969" stop-color="#2BB9F9"/>
<stop offset="0.7345" stop-color="#42A0F7"/>
<stop offset="1" stop-color="#4A97F6"/>
</linearGradient>
<linearGradient id="paint7_linear_4319_195870" x1="11.8569" y1="49.6515" x2="33.6652" y2="78.0242" gradientUnits="userSpaceOnUse">
<stop stop-color="#CDEC7A"/>
<stop offset="0.2154" stop-color="#B0E995" stop-opacity="0.784"/>
<stop offset="0.5604" stop-color="#87E4BB" stop-opacity="0.439"/>
<stop offset="0.8334" stop-color="#6EE1D2" stop-opacity="0.165"/>
<stop offset="0.9985" stop-color="#65E0DB" stop-opacity="0"/>
</linearGradient>
<linearGradient id="paint8_linear_4319_195870" x1="31.1881" y1="45.2504" x2="57.4904" y2="79.4697" gradientUnits="userSpaceOnUse">
<stop stop-color="#CDEC7A"/>
<stop offset="0.2157" stop-color="#B0E995"/>
<stop offset="0.5613" stop-color="#87E4BB"/>
<stop offset="0.8347" stop-color="#6EE1D2"/>
<stop offset="1" stop-color="#65E0DB"/>
</linearGradient>
<linearGradient id="paint9_linear_4319_195870" x1="18.3911" y1="20.6938" x2="26.9206" y2="31.7909" gradientUnits="userSpaceOnUse">
<stop stop-color="#FFD945"/>
<stop offset="0.3043" stop-color="#FFCD3E"/>
<stop offset="0.8558" stop-color="#FFAD2B"/>
<stop offset="1" stop-color="#FFA325"/>
</linearGradient>
<clipPath id="clip0_4319_195870">
<rect width="80" height="80" fill="white"/>
</clipPath>
</defs>
</svg>
