<svg width="24" height="24" viewBox="0 0 24 24" fill="none" xmlns="http://www.w3.org/2000/svg">
<g clip-path="url(#clip0_8124_29581)">
<path d="M12 24C18.6274 24 24 18.6274 24 12C24 5.37258 18.6274 0 12 0C5.37258 0 0 5.37258 0 12C0 18.6274 5.37258 24 12 24Z" fill="#B56710"/>
<path d="M11.9998 23.6519C18.4351 23.6519 23.6519 18.4351 23.6519 11.9998C23.6519 5.56449 18.4351 0.347656 11.9998 0.347656C5.56449 0.347656 0.347656 5.56449 0.347656 11.9998C0.347656 18.4351 5.56449 23.6519 11.9998 23.6519Z" fill="#F1A10C"/>
<path d="M11.9998 23.6519C18.4351 23.6519 23.6519 18.4351 23.6519 11.9998C23.6519 5.56449 18.4351 0.347656 11.9998 0.347656C5.56449 0.347656 0.347656 5.56449 0.347656 11.9998C0.347656 18.4351 5.56449 23.6519 11.9998 23.6519Z" fill="url(#paint0_radial_8124_29581)"/>
<path d="M11.9998 23.6519C18.4351 23.6519 23.6519 18.4351 23.6519 11.9998C23.6519 5.56449 18.4351 0.347656 11.9998 0.347656C5.56449 0.347656 0.347656 5.56449 0.347656 11.9998C0.347656 18.4351 5.56449 23.6519 11.9998 23.6519Z" fill="url(#paint1_linear_8124_29581)"/>
<path d="M16.1695 11.1387C17.1114 11.1387 17.8751 10.3751 17.8751 9.43314C17.8751 8.49116 17.1114 7.72754 16.1695 7.72754C15.2275 7.72754 14.4639 8.49116 14.4639 9.43314C14.4639 10.3751 15.2275 11.1387 16.1695 11.1387Z" fill="#6B3F00"/>
<path d="M16.1696 10.8264C16.939 10.8264 17.5627 10.2027 17.5627 9.43323C17.5627 8.66379 16.939 8.04004 16.1696 8.04004C15.4001 8.04004 14.7764 8.66379 14.7764 9.43323C14.7764 10.2027 15.4001 10.8264 16.1696 10.8264Z" fill="#7E500E"/>
<path d="M15.9699 9.32857C16.1621 9.32857 16.3178 9.1456 16.3178 8.9199C16.3178 8.6942 16.1621 8.51123 15.9699 8.51123C15.7778 8.51123 15.6221 8.6942 15.6221 8.9199C15.6221 9.1456 15.7778 9.32857 15.9699 9.32857Z" fill="#734300"/>
<path d="M15.8689 9.27437C16.061 9.27437 16.2167 9.0914 16.2167 8.8657C16.2167 8.64 16.061 8.45703 15.8689 8.45703C15.6767 8.45703 15.521 8.64 15.521 8.8657C15.521 9.0914 15.6767 9.27437 15.8689 9.27437Z" fill="#FFFBEE"/>
<path d="M7.83207 11.1387C8.77404 11.1387 9.53767 10.3751 9.53767 9.43314C9.53767 8.49116 8.77404 7.72754 7.83207 7.72754C6.89009 7.72754 6.12646 8.49116 6.12646 9.43314C6.12646 10.3751 6.89009 11.1387 7.83207 11.1387Z" fill="#6B3F00"/>
<path d="M7.83215 10.8264C8.60159 10.8264 9.22534 10.2027 9.22534 9.43323C9.22534 8.66379 8.60159 8.04004 7.83215 8.04004C7.06272 8.04004 6.43896 8.66379 6.43896 9.43323C6.43896 10.2027 7.06272 10.8264 7.83215 10.8264Z" fill="#7E500E"/>
<path d="M7.63303 9.32857C7.82516 9.32857 7.98091 9.1456 7.98091 8.9199C7.98091 8.6942 7.82516 8.51123 7.63303 8.51123C7.44091 8.51123 7.28516 8.6942 7.28516 8.9199C7.28516 9.1456 7.44091 9.32857 7.63303 9.32857Z" fill="#734300"/>
<path d="M7.53147 9.27437C7.72359 9.27437 7.87934 9.0914 7.87934 8.8657C7.87934 8.64 7.72359 8.45703 7.53147 8.45703C7.33934 8.45703 7.18359 8.64 7.18359 8.8657C7.18359 9.0914 7.33934 9.27437 7.53147 9.27437Z" fill="#FFFBEE"/>
<path d="M17.1437 18.3783C16.8162 17.9317 16.4463 17.5177 16.0393 17.1421C15.659 16.7863 15.2378 16.4768 14.7846 16.2201C13.9394 15.7251 12.9777 15.4642 11.9982 15.4642C11.0188 15.4642 10.057 15.7251 9.21183 16.2201C8.75938 16.4772 8.33879 16.7866 7.9588 17.1421C7.55043 17.5164 7.18046 17.9305 6.85438 18.3783C6.8259 18.4233 6.7865 18.4603 6.73985 18.486C6.6932 18.5117 6.64081 18.5252 6.58756 18.5252C6.53431 18.5252 6.48194 18.5117 6.43529 18.486C6.38864 18.4603 6.34924 18.4233 6.32075 18.3783C6.25226 18.2801 6.21317 18.1644 6.20809 18.0447C6.203 17.9251 6.23212 17.8065 6.29204 17.7028C6.62243 17.1647 7.00968 16.6637 7.44712 16.2083C7.86306 15.7808 8.3285 15.4043 8.83356 15.087C9.7771 14.4791 10.8758 14.1558 11.9982 14.1558C13.1206 14.1558 14.2193 14.4791 15.1629 15.087C15.6677 15.4054 16.1336 15.7817 16.551 16.2083C16.988 16.6642 17.3747 17.1658 17.7044 17.7045C17.7682 17.8132 17.7971 17.9389 17.7872 18.0645C17.7772 18.1902 17.7288 18.3098 17.6486 18.407C17.6168 18.4449 17.5764 18.4747 17.5308 18.494C17.4852 18.5134 17.4357 18.5216 17.3863 18.5182C17.3369 18.5147 17.289 18.4996 17.2466 18.4741C17.2041 18.4487 17.1683 18.4135 17.142 18.3715L17.1437 18.3783Z" fill="#6B3F00"/>
<path d="M12 14.5669C13.0768 14.5746 14.1299 14.8841 15.0397 15.4602C15.5247 15.7657 15.9719 16.1273 16.3721 16.5376C16.7898 16.9734 17.16 17.4523 17.4765 17.9663C17.4888 17.989 17.4941 18.0149 17.4917 18.0406C17.4905 18.0655 17.481 18.0893 17.4647 18.1081C17.4588 18.115 17.4516 18.1205 17.4434 18.1243C17.4353 18.1281 17.4264 18.13 17.4174 18.1301C17.4067 18.13 17.3962 18.1274 17.3868 18.1224C17.3774 18.1174 17.3693 18.1102 17.3633 18.1014C17.0232 17.6342 16.6374 17.202 16.2116 16.8112C15.8153 16.4418 15.3772 16.1199 14.9063 15.852C14.027 15.3482 13.0335 15.0779 12.0202 15.0668H11.9865C10.9737 15.0779 9.98074 15.3482 9.10215 15.852C8.62884 16.12 8.18895 16.4431 7.7917 16.8146C7.36867 17.2036 6.98516 17.6335 6.64676 18.098C6.64104 18.1074 6.63299 18.1152 6.62337 18.1207C6.61376 18.1261 6.60291 18.1289 6.59188 18.1289C6.58084 18.1289 6.56999 18.1261 6.56038 18.1207C6.55076 18.1152 6.54271 18.1074 6.53699 18.098C6.52461 18.0776 6.51807 18.0543 6.51807 18.0304C6.51807 18.0066 6.52461 17.9833 6.53699 17.9629C6.85386 17.4472 7.22526 16.9671 7.64479 16.5309C8.0441 16.1219 8.49017 15.7614 8.9738 15.4569C9.87989 14.884 10.928 14.5757 12 14.5669Z" fill="#7E500E"/>
</g>
<defs>
<radialGradient id="paint0_radial_8124_29581" cx="0" cy="0" r="1" gradientUnits="userSpaceOnUse" gradientTransform="translate(11.9998 11.9998) scale(12.3023)">
<stop stop-color="#F9DD50"/>
<stop offset="0.35" stop-color="#F9DD50" stop-opacity="0.99"/>
<stop offset="0.47" stop-color="#F8DD50" stop-opacity="0.97"/>
<stop offset="0.56" stop-color="#F8DC51" stop-opacity="0.92"/>
<stop offset="0.63" stop-color="#F7DB51" stop-opacity="0.85"/>
<stop offset="0.69" stop-color="#F5DA52" stop-opacity="0.76"/>
<stop offset="0.75" stop-color="#F3D953" stop-opacity="0.65"/>
<stop offset="0.8" stop-color="#F1D754" stop-opacity="0.52"/>
<stop offset="0.84" stop-color="#EFD555" stop-opacity="0.37"/>
<stop offset="0.88" stop-color="#ECD356" stop-opacity="0.2"/>
<stop offset="0.92" stop-color="#E9D158" stop-opacity="0"/>
</radialGradient>
<linearGradient id="paint1_linear_8124_29581" x1="11.9998" y1="-0.329518" x2="11.9998" y2="22.7484" gradientUnits="userSpaceOnUse">
<stop stop-color="#F9F1D6"/>
<stop offset="0.02" stop-color="#F9F1D6"/>
<stop offset="0.1" stop-color="#F9F1D6"/>
<stop offset="0.15" stop-color="#F9F1D4" stop-opacity="0.86"/>
<stop offset="0.28" stop-color="#F9F1CF" stop-opacity="0.56"/>
<stop offset="0.4" stop-color="#F9F2CA" stop-opacity="0.32"/>
<stop offset="0.49" stop-color="#F9F2C7" stop-opacity="0.15"/>
<stop offset="0.57" stop-color="#F9F2C6" stop-opacity="0.04"/>
<stop offset="0.62" stop-color="#F9F2C5" stop-opacity="0"/>
</linearGradient>
<clipPath id="clip0_8124_29581">
<rect width="24" height="24" fill="white"/>
</clipPath>
</defs>
</svg>
